<svg xmlns="http://www.w3.org/2000/svg" width="34.712" height="23.576" viewBox="0 0 34.712 23.576"><g transform="translate(-1115.926 -254)"><path d="M1116.739,271.279s6.693,0,10.688-2.453l.133-.088c1.31-.792,2.486-3.95,3.962-6.414l.047-.078c4.074-6.8,10.688-5.518,12.777-4.926.02,0,.188.064.188.064" transform="translate(0.705 1.094)" fill="none" stroke="#000" stroke-linecap="round" stroke-width="3"/><path d="M1116.721,257.438s6.71-1.854,10.706.869c1.443.978,2.619,4.489,4.1,7.229l.047.086c4.074,7.562,10.492,6.847,12.581,6.189" transform="translate(0.705 0.983)" fill="none" stroke="#000" stroke-linecap="round" stroke-width="3"/><g transform="translate(1150.638 254) rotate(90)"><path d="M 7.545173168182373 5.138180255889893 L 2.183473110198975 5.138180255889893 C 1.88567316532135 5.138180255889893 1.76024317741394 4.914830207824707 1.728893160820007 4.846380233764648 C 1.697533130645752 4.77793025970459 1.610363125801086 4.537050247192383 1.804903149604797 4.311570167541504 L 4.485743045806885 1.204230308532715 C 4.582202911376953 1.092420339584351 4.716653347015381 1.030850291252136 4.864323139190674 1.030850291252136 C 5.011992931365967 1.030850291252136 5.146443367004395 1.092420339584351 5.242913246154785 1.204230308532715 L 7.92374324798584 4.311570167541504 C 8.118283271789551 4.537050247192383 8.031112670898438 4.77793025970459 7.999752998352051 4.846380233764648 C 7.968403339385986 4.914830207824707 7.842973232269287 5.138180255889893 7.545173168182373 5.138180255889893 Z" stroke="none"/><path d="M 4.864323139190674 1.530840396881104 L 2.183483123779297 4.638180255889893 C 2.183483123779297 4.638180255889893 2.183483123779297 4.638180255889893 2.183473110198975 4.638180255889893 L 7.545163154602051 4.638180255889893 L 4.865843296051025 1.530990123748779 C 4.865693092346191 1.53095006942749 4.865123271942139 1.530850410461426 4.864323139190674 1.530850410461426 L 4.864323139190674 1.530840396881104 M 4.864323139190674 0.5308475494384766 C 5.14317798614502 0.5308475494384766 5.422033309936523 0.6464352607727051 5.621483325958252 0.8776102066040039 L 8.302323341369629 3.984950304031372 C 8.861403465270996 4.632980346679688 8.401033401489258 5.638180255889893 7.545173168182373 5.638180255889893 L 2.183473110198975 5.638180255889893 C 1.32761287689209 5.638180255889893 0.8672428131103516 4.632980346679688 1.426322937011719 3.984950304031372 L 4.107162952423096 0.8776102066040039 C 4.306612968444824 0.6464352607727051 4.585468292236328 0.5308475494384766 4.864323139190674 0.5308475494384766 Z" stroke="none"/></g><g transform="translate(1150.638 267.847) rotate(90)"><path d="M 7.545173168182373 5.138180255889893 L 2.183473110198975 5.138180255889893 C 1.88567316532135 5.138180255889893 1.76024317741394 4.914830207824707 1.728893160820007 4.846380233764648 C 1.697533130645752 4.77793025970459 1.610363125801086 4.537050247192383 1.804903149604797 4.311570167541504 L 4.485743045806885 1.204230308532715 C 4.582202911376953 1.092420339584351 4.716653347015381 1.030850291252136 4.864323139190674 1.030850291252136 C 5.011992931365967 1.030850291252136 5.146443367004395 1.092420339584351 5.242913246154785 1.204230308532715 L 7.92374324798584 4.311570167541504 C 8.118283271789551 4.537050247192383 8.031112670898438 4.77793025970459 7.999752998352051 4.846380233764648 C 7.968403339385986 4.914830207824707 7.842973232269287 5.138180255889893 7.545173168182373 5.138180255889893 Z" stroke="none"/><path d="M 4.864323139190674 1.530840396881104 L 2.183483123779297 4.638180255889893 C 2.183483123779297 4.638180255889893 2.183483123779297 4.638180255889893 2.183473110198975 4.638180255889893 L 7.545163154602051 4.638180255889893 L 4.865843296051025 1.530990123748779 C 4.865693092346191 1.53095006942749 4.865123271942139 1.530850410461426 4.864323139190674 1.530850410461426 L 4.864323139190674 1.530840396881104 M 4.864323139190674 0.5308475494384766 C 5.14317798614502 0.5308475494384766 5.422033309936523 0.6464352607727051 5.621483325958252 0.8776102066040039 L 8.302323341369629 3.984950304031372 C 8.861403465270996 4.632980346679688 8.401033401489258 5.638180255889893 7.545173168182373 5.638180255889893 L 2.183473110198975 5.638180255889893 C 1.32761287689209 5.638180255889893 0.8672428131103516 4.632980346679688 1.426322937011719 3.984950304031372 L 4.107162952423096 0.8776102066040039 C 4.306612968444824 0.6464352607727051 4.585468292236328 0.5308475494384766 4.864323139190674 0.5308475494384766 Z" stroke="none"/></g></g></svg>