<?xml version="1.0" encoding="utf-8"?>
<!-- Generator: Adobe Illustrator 23.0.3, SVG Export Plug-In . SVG Version: 6.00 Build 0)  -->
<svg version="1.1" id="圖層_1" xmlns="http://www.w3.org/2000/svg" xmlns:xlink="http://www.w3.org/1999/xlink" x="0px" y="0px"
	 viewBox="0 0 21 21" style="enable-background:new 0 0 21 21;" xml:space="preserve">
<style type="text/css">
	.st0{fill:none;stroke:#000000;stroke-width:3;stroke-linecap:round;stroke-miterlimit:10;}
	.st1{fill:none;stroke:#000000;stroke-width:3;stroke-linecap:round;}
	.st2{fill:none;stroke:#000000;stroke-width:3;}
	.st3{fill:none;stroke:#000000;stroke-width:3;stroke-miterlimit:10;}
</style>
<path d="M19,20.6c-0.4,0-0.7-0.1-1-0.3l-13.1-8c-0.6-0.4-1-1-1-1.7s0.4-1.3,1-1.7l13.1-8c0.6-0.4,1.4-0.4,2,0c0.6,0.4,1,1,1,1.7
	v15.9c0,0.7-0.4,1.4-1,1.7C19.7,20.5,19.3,20.6,19,20.6z M7.8,10.6L18,16.8V4.4L7.8,10.6z"/>
<path d="M1.5,20.1c-0.8,0-1.5-0.7-1.5-1.5v-17c0-0.8,0.7-1.5,1.5-1.5S3,0.8,3,1.6v17C3,19.4,2.3,20.1,1.5,20.1z"/>
</svg>
