<svg xmlns="http://www.w3.org/2000/svg" xmlns:xlink="http://www.w3.org/1999/xlink" width="787" height="785.002" viewBox="0 0 787 785.002">
  <defs>
    <filter id="Subtraction_1" x="0" y="0" width="787" height="785.002" filterUnits="userSpaceOnUse">
      <feOffset dy="3" input="SourceAlpha"/>
      <feGaussianBlur stdDeviation="6" result="blur"/>
      <feFlood flood-opacity="0.2"/>
      <feComposite operator="in" in2="blur"/>
      <feComposite in="SourceGraphic"/>
    </filter>
  </defs>
  <g transform="matrix(1, 0, 0, 1, 0, 0)" filter="url(#Subtraction_1)">
    <g id="Subtraction_1-2" data-name="Subtraction 1" transform="translate(18 -8.36)" fill="#c5c5c5" stroke-linecap="round" stroke-linejoin="round">
      <path d="M 749.4996337890625 770.8638305664063 L 18.38226509094238 770.8638305664063 L 1.500016927719116 753.7307739257813 L 1.500016927719116 24.8631534576416 L 730.5986328125 24.8631534576416 L 749.4996337890625 50.87802124023438 L 749.4996337890625 770.8638305664063 Z" stroke="none"/>
      <path d="M 747.9996337890625 769.3638305664063 L 747.9996337890625 51.36538696289063 L 729.8343505859375 26.3631534576416 L 3.000016927719116 26.3631534576416 L 3.000016927719116 753.115966796875 L 19.01001167297363 769.3638305664063 L 747.9996337890625 769.3638305664063 M 750.9996337890625 772.3648681640625 L 750.9996337890625 772.3638305664063 L 17.75441741943359 772.3638305664063 L 1.689453165454324e-05 754.3456420898438 L 1.689453165454324e-05 23.3631534576416 L 731.3629150390625 23.3631534576416 L 750.9996337890625 50.39065170288086 L 750.9996337890625 772.3638305664063 L 750.9996337890625 772.3648681640625 Z" stroke="none"/>
    </g>
  </g>
</svg>
