<?xml version="1.0" encoding="utf-8"?>
<!-- Generator: Adobe Illustrator 23.0.3, SVG Export Plug-In . SVG Version: 6.00 Build 0)  -->
<svg version="1.1" id="圖層_1" xmlns="http://www.w3.org/2000/svg" xmlns:xlink="http://www.w3.org/1999/xlink" x="0px" y="0px"
	 viewBox="0 0 22 19" style="enable-background:new 0 0 22 19;" xml:space="preserve">
<style type="text/css">
	.st0{fill:none;stroke:#000000;stroke-width:3;stroke-linecap:round;stroke-miterlimit:10;}
	.st1{fill:none;stroke:#000000;stroke-width:3;stroke-linecap:round;}
	.st2{fill:none;stroke:#000000;stroke-width:3;}
	.st3{fill:none;stroke:#000000;stroke-width:3;stroke-miterlimit:10;}
</style>
<g id="Group_5" transform="translate(-909.766 -661.784)">
	<path d="M926.9,675.6c-0.6,0-1-0.4-1-1v-7c0-0.6,0.4-1,1-1s1,0.4,1,1v7C927.9,675.1,927.5,675.6,926.9,675.6z"/>
	<path d="M930.9,678.6c-0.6,0-1-0.4-1-1v-13c0-0.6,0.4-1,1-1s1,0.4,1,1v13C931.9,678.1,931.5,678.6,930.9,678.6z"/>
	<path d="M923,678.9c-0.3,0-0.6-0.1-0.9-0.2l-8-4.5l-1.7,1c-0.4,0.2-1,0.3-1.4,0c-0.4-0.2-0.7-0.7-0.7-1.2l-0.1-5.9
		c0-0.5,0.3-1,0.7-1.2c0.4-0.3,1-0.3,1.4,0l1.9,1.1l7.6-4.5c0.6-0.3,1.2-0.3,1.8,0c0.6,0.3,0.9,0.9,0.9,1.5l0.2,12.2
		c0,0.6-0.3,1.2-0.9,1.6C923.6,678.9,923.3,678.9,923,678.9z M914.1,671.9l8.7,4.9l-0.1-11.4l-8.3,4.9l-2-1.1l0,3.8L914.1,671.9z"/>
</g>
</svg>
