<?xml version="1.0" encoding="utf-8"?>
<!-- Generator: Adobe Illustrator 23.0.3, SVG Export Plug-In . SVG Version: 6.00 Build 0)  -->
<svg version="1.1" id="圖層_1" xmlns="http://www.w3.org/2000/svg" xmlns:xlink="http://www.w3.org/1999/xlink" x="0px" y="0px"
	 viewBox="0 0 33 36" style="enable-background:new 0 0 33 36;" xml:space="preserve">
<style type="text/css">
	.st0{fill:none;stroke:#000000;stroke-width:3;stroke-linecap:round;stroke-miterlimit:10;}
	.st1{fill:none;stroke:#000000;stroke-width:3;stroke-linecap:round;}
	.st2{fill:none;stroke:#000000;stroke-width:3;}
	.st3{fill:none;stroke:#000000;stroke-width:3;stroke-miterlimit:10;}
</style>
<g id="Rectangle_19_2_">
	<path class="st2" d="M6.4,1.6h1c2.5,0,4.5,2,4.5,4.5v24c0,2.5-2,4.5-4.5,4.5h-1c-2.5,0-4.5-2-4.5-4.5v-24C1.9,3.6,3.9,1.6,6.4,1.6z
		"/>
</g>
<g id="Rectangle_20_2_" transform="translate(19.015)">
	<path class="st2" d="M6.4,1.6h1c2.5,0,4.5,2,4.5,4.5v24c0,2.5-2,4.5-4.5,4.5h-1c-2.5,0-4.5-2-4.5-4.5v-24C1.9,3.6,3.9,1.6,6.4,1.6z
		"/>
</g>
</svg>
